<svg width="24" height="24" viewBox="0 0 24 24" fill="none" xmlns="http://www.w3.org/2000/svg">
<path d="M3.00057 18.9996H21.0006C21.1828 18.999 21.3614 18.9488 21.5173 18.8542C21.6731 18.7597 21.8001 18.6245 21.8848 18.4631C21.9694 18.3017 22.0085 18.1203 21.9977 17.9383C21.9869 17.7564 21.9267 17.5809 21.8236 17.4306L12.8236 4.43062C12.4506 3.89162 11.5526 3.89162 11.1786 4.43062L2.17857 17.4306C2.0744 17.5806 2.01331 17.7562 2.00194 17.9384C1.99057 18.1206 2.02936 18.3025 2.11409 18.4642C2.19882 18.626 2.32625 18.7614 2.48254 18.8558C2.63883 18.9502 2.81799 18.9999 3.00057 18.9996Z" fill="black"/>
</svg>
