<svg width="24" height="24" viewBox="0 0 24 24" fill="none" xmlns="http://www.w3.org/2000/svg">
<g clip-path="url(#clip0_2518_8360)">
<path d="M12.0002 21.6002C10.1015 21.6002 8.24546 21.0372 6.66674 19.9823C5.08803 18.9275 3.85758 17.4281 3.13097 15.674C2.40437 13.9198 2.21426 11.9896 2.58468 10.1274C2.9551 8.26513 3.86941 6.55458 5.21199 5.21199C6.55458 3.86941 8.26513 2.9551 10.1274 2.58468C11.9896 2.21426 13.9198 2.40437 15.674 3.13097C17.4281 3.85758 18.9275 5.08803 19.9823 6.66674C21.0372 8.24546 21.6002 10.1015 21.6002 12.0002C21.6002 14.5463 20.5888 16.9881 18.7884 18.7884C16.9881 20.5888 14.5463 21.6002 12.0002 21.6002ZM12.0002 0.000218646C10.4217 -0.00933883 8.85696 0.294525 7.39673 0.894197C5.93651 1.49387 4.60984 2.37742 3.49363 3.49363C2.37742 4.60984 1.49387 5.93651 0.894197 7.39673C0.294525 8.85696 -0.00933883 10.4217 0.000218646 12.0002C-0.00933883 13.5788 0.294525 15.1435 0.894197 16.6037C1.49387 18.0639 2.37742 19.3906 3.49363 20.5068C4.60984 21.623 5.93651 22.5066 7.39673 23.1062C8.85696 23.7059 10.4217 24.0098 12.0002 24.0002C13.5788 24.0098 15.1435 23.7059 16.6037 23.1062C18.0639 22.5066 19.3906 21.623 20.5068 20.5068C21.623 19.3906 22.5066 18.0639 23.1062 16.6037C23.7059 15.1435 24.0098 13.5788 24.0002 12.0002C24.0098 10.4217 23.7059 8.85696 23.1062 7.39673C22.5066 5.93651 21.623 4.60984 20.5068 3.49363C19.3906 2.37742 18.0639 1.49387 16.6037 0.894197C15.1435 0.294525 13.5788 -0.00933883 12.0002 0.000218646Z" fill="black"/>
<path d="M16.1859 14.0045C14.9859 14.0045 14.4699 13.3205 14.4699 11.9525C14.4699 10.5845 14.9859 9.90047 16.1859 9.90047C16.8699 9.90047 17.2179 10.2485 17.5539 10.9325L19.1019 10.0805C18.7794 9.51403 18.2991 9.05361 17.7196 8.75532C17.14 8.45702 16.4863 8.33374 15.8379 8.40047C15.362 8.3877 14.8886 8.4727 14.4469 8.65021C14.0052 8.82772 13.6046 9.09396 13.2699 9.43247C12.9189 9.75774 12.6443 10.1567 12.4659 10.6007C12.2874 11.0448 12.2096 11.5228 12.2379 12.0005C12.2072 12.5053 12.2833 13.011 12.4611 13.4844C12.6389 13.9579 12.9145 14.3886 13.2699 14.7485C13.6046 15.087 14.0052 15.3532 14.4469 15.5307C14.8886 15.7082 15.362 15.7932 15.8379 15.7805C16.495 15.7669 17.1379 15.587 17.7066 15.2575C18.2753 14.928 18.7512 14.4598 19.0899 13.8965L17.5539 13.2005C17.4107 13.4416 17.2117 13.6448 16.9737 13.7931C16.7356 13.9414 16.4654 14.0303 16.1859 14.0525V14.0045ZM8.98588 14.0045C7.78588 14.0045 7.26988 13.3205 7.26988 11.9525C7.26988 10.5845 7.78588 9.90047 8.98588 9.90047C9.66988 9.90047 10.0179 10.2485 10.3539 10.9325L11.9019 10.0805C11.5794 9.51403 11.0991 9.05361 10.5196 8.75532C9.94005 8.45702 9.28625 8.33374 8.63788 8.40047C8.16201 8.3877 7.68858 8.4727 7.24687 8.65021C6.80516 8.82772 6.40457 9.09396 6.06988 9.43247C5.71889 9.75774 5.44432 10.1567 5.26588 10.6007C5.08745 11.0448 5.00958 11.5228 5.03788 12.0005C5.00721 12.5053 5.08326 13.011 5.26107 13.4844C5.43889 13.9579 5.71447 14.3886 6.06988 14.7485C6.40457 15.087 6.80516 15.3532 7.24687 15.5307C7.68858 15.7082 8.16201 15.7932 8.63788 15.7805C9.29499 15.7669 9.93793 15.587 10.5066 15.2575C11.0753 14.928 11.5512 14.4598 11.8899 13.8965L10.3539 13.2005C10.2107 13.4416 10.0117 13.6448 9.77366 13.7931C9.53561 13.9414 9.26544 14.0303 8.98588 14.0525V14.0045Z" fill="black"/>
</g>
<defs>
<clipPath id="clip0_2518_8360">
<rect width="24" height="24" fill="white"/>
</clipPath>
</defs>
</svg>
