<svg width="24" height="24" viewBox="0 0 24 24" fill="none" xmlns="http://www.w3.org/2000/svg">
<g clip-path="url(#clip0_2518_8333)">
<path d="M13.5024 1.5C13.5024 0.670312 12.8321 0 12.0024 0C11.1727 0 10.5024 0.670312 10.5024 1.5V11.25C10.5024 11.6625 10.1649 12 9.75238 12C9.33988 12 9.00238 11.6625 9.00238 11.25V3C9.00238 2.17031 8.33206 1.5 7.50238 1.5C6.67269 1.5 6.00238 2.17031 6.00238 3V15.75C6.00238 15.8203 6.00238 15.8953 6.00706 15.9656L3.17113 13.2656C2.42113 12.5531 1.23519 12.5812 0.518002 13.3312C-0.199186 14.0812 -0.166373 15.2672 0.583627 15.9844L5.85238 21C7.87269 22.9266 10.5586 24 13.3524 24H14.2524C18.8086 24 22.5024 20.3062 22.5024 15.75V6C22.5024 5.17031 21.8321 4.5 21.0024 4.5C20.1727 4.5 19.5024 5.17031 19.5024 6V11.25C19.5024 11.6625 19.1649 12 18.7524 12C18.3399 12 18.0024 11.6625 18.0024 11.25V3C18.0024 2.17031 17.3321 1.5 16.5024 1.5C15.6727 1.5 15.0024 2.17031 15.0024 3V11.25C15.0024 11.6625 14.6649 12 14.2524 12C13.8399 12 13.5024 11.6625 13.5024 11.25V1.5Z" fill="black"/>
</g>
<defs>
<clipPath id="clip0_2518_8333">
<rect width="24" height="24" fill="white"/>
</clipPath>
</defs>
</svg>
