<svg width="24" height="24" viewBox="0 0 24 24" fill="none" xmlns="http://www.w3.org/2000/svg">
<path d="M3.28308 2.22015C3.21442 2.14647 3.13162 2.08736 3.03962 2.04637C2.94762 2.00538 2.84831 1.98334 2.74761 1.98156C2.6469 1.97979 2.54687 1.99831 2.45349 2.03603C2.3601 2.07375 2.27526 2.1299 2.20404 2.20112C2.13283 2.27233 2.07668 2.35717 2.03896 2.45056C2.00124 2.54394 1.98271 2.64397 1.98449 2.74468C1.98627 2.84538 2.00831 2.94469 2.0493 3.03669C2.09029 3.12869 2.1494 3.21149 2.22308 3.28015L8.00308 9.06015V12.0002C8.003 12.7272 8.20107 13.4405 8.57599 14.0634C8.95091 14.6863 9.4885 15.1952 10.131 15.5355C10.7735 15.8757 11.4965 16.0345 12.2225 15.9946C12.9484 15.9547 13.6497 15.7177 14.2511 15.3092L15.3971 16.4552C14.49 17.135 13.3866 17.5017 12.2531 17.5002H11.7531L11.5371 17.4962C10.1832 17.4404 8.90324 16.8633 7.96502 15.8856C7.0268 14.9079 6.50297 13.6052 6.50308 12.2502V11.7502L6.49608 11.6482C6.47018 11.4599 6.37379 11.2885 6.22638 11.1686C6.07898 11.0487 5.89155 10.9892 5.70196 11.0021C5.51238 11.0151 5.33478 11.0995 5.20506 11.2384C5.07533 11.3772 5.00314 11.5601 5.00308 11.7502V12.2502L5.00708 12.4862C5.0651 14.1482 5.73463 15.7303 6.88729 16.9291C8.03996 18.1279 9.5946 18.859 11.2531 18.9822V21.2502L11.2601 21.3522C11.286 21.5404 11.3824 21.7118 11.5298 21.8317C11.6772 21.9516 11.8646 22.0111 12.0542 21.9982C12.2438 21.9852 12.4214 21.9008 12.5511 21.7619C12.6808 21.6231 12.753 21.4402 12.7531 21.2502L12.7541 18.9822C14.1107 18.8842 15.4054 18.3757 16.4661 17.5242L20.7221 21.7802C20.8635 21.9168 21.0529 21.9925 21.2495 21.9909C21.4462 21.9893 21.6343 21.9105 21.7735 21.7715C21.9126 21.6325 21.9915 21.4445 21.9933 21.2478C21.9951 21.0512 21.9196 20.8617 21.7831 20.7202L3.28308 2.22015ZM17.1991 14.0142L18.3451 15.1602C18.7803 14.2519 19.0053 13.2573 19.0031 12.2502V11.7502L18.9961 11.6482C18.9702 11.4599 18.8738 11.2885 18.7264 11.1686C18.579 11.0487 18.3915 10.9892 18.202 11.0021C18.0124 11.0151 17.8348 11.0995 17.7051 11.2384C17.5753 11.3772 17.5031 11.5601 17.5031 11.7502V12.2502L17.4991 12.4662C17.4784 12.9944 17.3772 13.5164 17.1991 14.0142ZM8.14108 4.95615L15.9331 12.7482C15.9798 12.5055 16.0031 12.2562 16.0031 12.0002V6.00015C16.0037 5.03008 15.6517 4.09285 15.0127 3.36296C14.3737 2.63307 13.4913 2.16027 12.5296 2.03257C11.568 1.90487 10.5927 2.13099 9.78539 2.66882C8.97806 3.20665 8.39369 4.01955 8.14108 4.95615Z" fill="black"/>
</svg>
