<svg width="24" height="24" viewBox="0 0 24 24" fill="none" xmlns="http://www.w3.org/2000/svg">
<path d="M3.28308 2.22015C3.21442 2.14647 3.13162 2.08736 3.03962 2.04637C2.94762 2.00538 2.84831 1.98334 2.74761 1.98156C2.6469 1.97979 2.54687 1.99831 2.45349 2.03603C2.3601 2.07375 2.27526 2.1299 2.20404 2.20112C2.13283 2.27233 2.07668 2.35717 2.03896 2.45056C2.00124 2.54394 1.98271 2.64397 1.98449 2.74468C1.98627 2.84538 2.00831 2.94469 2.0493 3.03669C2.09029 3.12869 2.1494 3.21149 2.22308 3.28015L4.13808 5.19615C3.51198 5.42483 2.97134 5.84049 2.58943 6.38679C2.20753 6.93309 2.00283 7.5836 2.00308 8.25015V15.7502C2.00308 16.6121 2.34549 17.4388 2.95499 18.0483C3.56448 18.6577 4.39113 19.0002 5.25308 19.0002H11.7531C12.5637 19.0003 13.3452 18.6975 13.944 18.1512C14.5429 17.6048 14.916 16.8544 14.9901 16.0472L20.7221 21.7802C20.8635 21.9168 21.0529 21.9925 21.2495 21.9909C21.4462 21.9893 21.6343 21.9105 21.7735 21.7715C21.9126 21.6325 21.9915 21.4445 21.9933 21.2478C21.9951 21.0512 21.9196 20.8617 21.7831 20.7202L3.28308 2.22015ZM16.0031 12.8182L21.0111 17.8262C21.5811 17.5522 22.0051 16.9782 22.0051 16.2482V7.75315C22.0051 6.34315 20.4211 5.51115 19.2601 6.31315L16.0031 8.56315V12.8182ZM8.18508 5.00015L15.0031 11.8182V8.25015C15.0031 7.82336 14.919 7.40074 14.7557 7.00643C14.5924 6.61212 14.353 6.25385 14.0512 5.95206C13.7494 5.65027 13.3911 5.41087 12.9968 5.24755C12.6025 5.08422 12.1799 5.00015 11.7531 5.00015H8.18508Z" fill="black"/>
</svg>
