<svg width="24" height="24" viewBox="0 0 24 24" fill="none" xmlns="http://www.w3.org/2000/svg">
<g clip-path="url(#clip0_2483_8410)">
<path d="M12.0001 9C10.4001 9 8.85008 9.25 7.40008 9.72V12.82C7.40008 13.21 7.17008 13.56 6.84008 13.72C5.86008 14.21 4.97008 14.84 4.18008 15.57C4.00008 15.75 3.75008 15.85 3.48008 15.85C3.20008 15.85 2.95008 15.74 2.77008 15.56L0.29008 13.08C0.19678 12.9891 0.122954 12.8802 0.0730983 12.7598C0.0232423 12.6395 -0.00160124 12.5102 7.99679e-05 12.38C7.99679e-05 12.1 0.11008 11.85 0.29008 11.67C3.34008 8.78 7.46008 7 12.0001 7C16.5401 7 20.6601 8.78 23.7101 11.67C23.8901 11.85 24.0001 12.1 24.0001 12.38C24.0001 12.66 23.8901 12.91 23.7101 13.09L21.2301 15.57C21.0501 15.75 20.8001 15.86 20.5201 15.86C20.2501 15.86 20.0001 15.75 19.8201 15.58C19.0238 14.838 18.1245 14.2149 17.1501 13.73C16.9818 13.6475 16.84 13.5194 16.741 13.3603C16.642 13.2012 16.5897 13.0174 16.5901 12.83V9.73C15.1501 9.25 13.6001 9 12.0001 9Z" fill="white"/>
</g>
<defs>
<clipPath id="clip0_2483_8410">
<rect width="24" height="24" fill="white"/>
</clipPath>
</defs>
</svg>
