<svg width="25" height="24" viewBox="0 0 25 24" fill="none" xmlns="http://www.w3.org/2000/svg">
<path d="M12.5724 1.09961C6.55212 1.09961 1.67188 5.97986 1.67188 12.0001C1.67188 18.0204 6.55212 22.9006 12.5724 22.9006C18.5926 22.9006 23.4729 18.0204 23.4729 12.0001C23.4729 5.97986 18.5926 1.09961 12.5724 1.09961ZM16.1199 5.53211C16.8196 5.53211 17.3851 6.64361 17.3851 8.01461C17.3851 9.38561 16.8174 10.5001 16.1199 10.5001C15.4201 10.5001 14.8524 9.38786 14.8524 8.01611C14.8524 6.64436 15.4209 5.53211 16.1199 5.53211ZM8.90038 5.53211C9.59938 5.53211 10.1664 6.64361 10.1664 8.01461C10.1664 9.38561 9.60013 10.5001 8.90038 10.5001C8.20063 10.5001 7.63438 9.38786 7.63438 8.01611C7.63438 6.64436 8.20138 5.53211 8.90038 5.53211ZM12.5874 19.5001C10.4334 19.5001 8.41587 18.1824 6.67887 15.8926C8.47662 17.0649 10.4439 17.7189 12.5094 17.7189C14.7016 17.7189 16.7844 16.9839 18.6706 15.6684C16.8976 18.0999 14.8156 19.5009 12.5881 19.5009L12.5874 19.5001Z" fill="#2E5AEC"/>
</svg>
