<svg width="24" height="24" viewBox="0 0 24 24" fill="none" xmlns="http://www.w3.org/2000/svg">
<g clip-path="url(#clip0_2483_8470)">
<path d="M14.5725 3H9.4275C8.685 3 7.98 3.2925 7.455 3.8175L3.8175 7.455C3.2925 7.98 3 8.685 3 9.4275V14.5725C3 15.315 3.2925 16.02 3.8175 16.545L7.455 20.1825C7.98 20.7075 8.685 21 9.4275 21H14.5725C15.315 21 16.02 20.7075 16.545 20.1825L20.1825 16.545C20.7075 16.02 21 15.315 21 14.5725V9.4275C21 8.685 20.7075 7.98 20.1825 7.455L16.545 3.8175C16.02 3.2925 15.315 3 14.5725 3Z" fill="white"/>
<path d="M15.195 3.21378e-06H8.805C7.66425 3.21378e-06 6.5775 0.450753 5.772 1.257L1.257 5.772C0.857945 6.16978 0.541455 6.64251 0.325733 7.16302C0.110011 7.68354 -0.00068764 8.24156 3.21378e-06 8.805V15.195C3.21378e-06 16.3358 0.450753 17.4225 1.257 18.228L5.772 22.743C6.16978 23.1421 6.64251 23.4586 7.16302 23.6743C7.68354 23.89 8.24156 24.0007 8.805 24H15.195C16.3358 24 17.4225 23.5493 18.228 22.743L22.743 18.228C23.1421 17.8302 23.4586 17.3575 23.6743 16.837C23.89 16.3165 24.0007 15.7584 24 15.195V8.805C24 7.66425 23.5493 6.5775 22.743 5.772L18.228 1.257C17.8302 0.857945 17.3575 0.541455 16.837 0.325733C16.3165 0.110011 15.7584 -0.00068764 15.195 3.21378e-06ZM8.805 1.5H15.195C15.9375 1.5 16.6425 1.7925 17.1675 2.3175L21.6825 6.8325C22.2075 7.3575 22.5 8.0625 22.5 8.805V15.195C22.5 15.9375 22.2075 16.6425 21.6825 17.1675L17.1675 21.6825C16.6425 22.2075 15.9375 22.5 15.195 22.5H8.805C8.0625 22.5 7.3575 22.2075 6.8325 21.6825L2.3175 17.1675C1.7925 16.6425 1.5 15.9375 1.5 15.195V8.805C1.5 8.0625 1.7925 7.3575 2.3175 6.8325L6.8325 2.3175C7.3575 1.7925 8.0625 1.5 8.805 1.5Z" fill="white"/>
</g>
<defs>
<clipPath id="clip0_2483_8470">
<rect width="24" height="24" fill="white"/>
</clipPath>
</defs>
</svg>
