<svg width="24" height="24" viewBox="0 0 24 24" fill="none" xmlns="http://www.w3.org/2000/svg">
<path d="M11.25 1.5C10.0565 1.5 8.91193 1.97411 8.06802 2.81802C7.22411 3.66193 6.75 4.80653 6.75 6V12C6.74989 13.0718 7.1323 14.1084 7.82842 14.9233C8.52454 15.7382 9.48865 16.2779 10.5472 16.4452C10.714 15.0636 11.3032 13.7672 12.2344 12.733C13.1656 11.6989 14.3934 10.9774 15.75 10.6672V6C15.75 4.80653 15.2759 3.66193 14.432 2.81802C13.5881 1.97411 12.4435 1.5 11.25 1.5ZM5.25 12C5.24987 13.4679 5.78783 14.8849 6.76209 15.9828C7.73634 17.0808 9.07928 17.7835 10.5367 17.958C10.6717 19.2531 11.1801 20.4812 12 21.4928V21.75C12 21.9489 11.921 22.1397 11.7803 22.2803C11.6397 22.421 11.4489 22.5 11.25 22.5C11.0511 22.5 10.8603 22.421 10.7197 22.2803C10.579 22.1397 10.5 21.9489 10.5 21.75V19.5L10.5008 19.4625C6.71025 19.0875 3.75 15.8903 3.75 12C3.75 11.8011 3.82902 11.6103 3.96967 11.4697C4.11032 11.329 4.30109 11.25 4.5 11.25C4.69891 11.25 4.88968 11.329 5.03033 11.4697C5.17098 11.6103 5.25 11.8011 5.25 12ZM17.25 22.875C18.7418 22.875 20.1726 22.2824 21.2275 21.2275C22.2824 20.1726 22.875 18.7418 22.875 17.25C22.875 15.7582 22.2824 14.3274 21.2275 13.2725C20.1726 12.2176 18.7418 11.625 17.25 11.625C15.7582 11.625 14.3274 12.2176 13.2725 13.2725C12.2176 14.3274 11.625 15.7582 11.625 17.25C11.625 18.7418 12.2176 20.1726 13.2725 21.2275C14.3274 22.2824 15.7582 22.875 17.25 22.875ZM16.0597 14.4375C16.1747 14.4395 16.2863 14.4766 16.3795 14.5439C16.4727 14.6112 16.543 14.7055 16.581 14.814L17.625 17.7975L18.4065 15.564C18.4448 15.4548 18.5158 15.36 18.6098 15.2926C18.7039 15.2252 18.8165 15.1885 18.9322 15.1875C19.0479 15.1864 19.1611 15.221 19.2565 15.2867C19.3518 15.3523 19.4245 15.4458 19.4647 15.5543L19.8915 16.7025H20.4375C20.5867 16.7025 20.7298 16.7618 20.8352 16.8673C20.9407 16.9727 21 17.1158 21 17.265C21 17.4142 20.9407 17.5573 20.8352 17.6627C20.7298 17.7682 20.5867 17.8275 20.4375 17.8275H19.5C19.3852 17.8275 19.2731 17.7923 19.1789 17.7268C19.0846 17.6612 19.0127 17.5684 18.9728 17.4608L18.9532 17.4083L18.156 19.686C18.1175 19.7961 18.0457 19.8916 17.9506 19.9591C17.8554 20.0266 17.7417 20.0629 17.625 20.0629C17.5083 20.0629 17.3946 20.0266 17.2994 19.9591C17.2043 19.8916 17.1325 19.7961 17.094 19.686L16.0223 16.6245L15.6945 17.469C15.6534 17.5746 15.5814 17.6653 15.4878 17.7293C15.3943 17.7933 15.2836 17.8275 15.1702 17.8275H14.0625C13.9133 17.8275 13.7702 17.7682 13.6648 17.6627C13.5593 17.5573 13.5 17.4142 13.5 17.265C13.5 17.1158 13.5593 16.9727 13.6648 16.8673C13.7702 16.7618 13.9133 16.7025 14.0625 16.7025H14.7855L15.5258 14.7968C15.5673 14.6894 15.6408 14.5974 15.7363 14.5332C15.8318 14.469 15.9447 14.4356 16.0597 14.4375Z" fill="white"/>
</svg>
