<svg width="30" height="31" viewBox="0 0 30 31" fill="none" xmlns="http://www.w3.org/2000/svg">
<g filter="url(#filter0_d_2517_8309)">
<path d="M19.2765 17.3366L24.2197 22.2798C24.3612 22.4164 24.5507 22.492 24.7473 22.4903C24.9439 22.4886 25.1321 22.4097 25.2711 22.2707C25.4102 22.1316 25.489 21.9435 25.4908 21.7469C25.4925 21.5502 25.4169 21.3608 25.2803 21.2193L5.78025 1.71932C5.6388 1.5827 5.44935 1.50711 5.2527 1.50882C5.05605 1.51053 4.86794 1.5894 4.72889 1.72846C4.58983 1.86752 4.51095 2.05562 4.50924 2.25227C4.50754 2.44892 4.58313 2.63837 4.71975 2.77982L6.663 4.72457C6.02637 4.96953 5.47891 5.40166 5.09278 5.96398C4.70665 6.52631 4.49997 7.19244 4.5 7.87457V16.1246C4.5 17.0197 4.85558 17.8781 5.48851 18.5111C6.12145 19.144 6.97989 19.4996 7.875 19.4996H16.125C16.8074 19.4999 17.4739 19.2934 18.0365 18.9072C18.5991 18.5211 19.0314 17.9734 19.2765 17.3366ZM18 16.0601V16.1246C18 16.3708 17.9515 16.6146 17.8573 16.8421C17.763 17.0696 17.6249 17.2763 17.4508 17.4504C17.2767 17.6245 17.07 17.7626 16.8425 17.8568C16.615 17.9511 16.3712 17.9996 16.125 17.9996H7.875C7.62877 17.9996 7.38495 17.9511 7.15747 17.8568C6.92998 17.7626 6.72328 17.6245 6.54917 17.4504C6.37506 17.2763 6.23695 17.0696 6.14273 16.8421C6.0485 16.6146 6 16.3708 6 16.1246V7.87457C6 7.37729 6.19754 6.90038 6.54917 6.54875C6.90081 6.19712 7.37772 5.99957 7.875 5.99957H7.9395L18 16.0601ZM18 7.87457V12.3468L19.5 13.8468V10.0623L23.703 7.16057C23.7312 7.14114 23.7641 7.12978 23.7982 7.12773C23.8324 7.12567 23.8664 7.133 23.8967 7.14891C23.927 7.16483 23.9524 7.18872 23.97 7.21801C23.9877 7.2473 23.997 7.28086 23.997 7.31507V16.6841C23.997 16.7183 23.9877 16.7518 23.97 16.7811C23.9524 16.8104 23.927 16.8343 23.8967 16.8502C23.8664 16.8661 23.8324 16.8735 23.7982 16.8714C23.7641 16.8694 23.7312 16.858 23.703 16.8386L19.788 14.1348L24.0142 18.3611C24.807 18.2606 25.497 17.5983 25.497 16.6841V7.31507C25.497 5.95457 23.97 5.15357 22.851 5.92607L19.5 8.23982V7.87457C19.5 6.97947 19.1444 6.12102 18.5115 5.48809C17.8785 4.85515 17.0201 4.49957 16.125 4.49957H10.1527L11.6527 5.99957H16.125C16.6223 5.99957 17.0992 6.19712 17.4508 6.54875C17.8025 6.90038 18 7.37729 18 7.87457Z" fill="black"/>
</g>
<defs>
<filter id="filter0_d_2517_8309" x="-1" y="0" width="32" height="32" filterUnits="userSpaceOnUse" color-interpolation-filters="sRGB">
<feFlood flood-opacity="0" result="BackgroundImageFix"/>
<feColorMatrix in="SourceAlpha" type="matrix" values="0 0 0 0 0 0 0 0 0 0 0 0 0 0 0 0 0 0 127 0" result="hardAlpha"/>
<feOffset dy="4"/>
<feGaussianBlur stdDeviation="2"/>
<feComposite in2="hardAlpha" operator="out"/>
<feColorMatrix type="matrix" values="0 0 0 0 0 0 0 0 0 0 0 0 0 0 0 0 0 0 0.25 0"/>
<feBlend mode="normal" in2="BackgroundImageFix" result="effect1_dropShadow_2517_8309"/>
<feBlend mode="normal" in="SourceGraphic" in2="effect1_dropShadow_2517_8309" result="shape"/>
</filter>
</defs>
</svg>
